HIERARCHY
ROOT hip
{
  OFFSET 0 0 0
  CHANNELS 6 Xposition Yposition Zposition Zrotation Yrotation Xrotation
  JOINT abdomen
  {
    OFFSET 0 20.6881 -0.73152
    CHANNELS 3 Zrotation Xrotation Yrotation
    JOINT chest
    {
      OFFSET 0 11.7043 -0.48768
      CHANNELS 3 Zrotation Xrotation Yrotation
      JOINT neck
      {
        OFFSET 0 22.1894 -2.19456
        CHANNELS 3 Zrotation Xrotation Yrotation
        JOINT head
        {
          OFFSET -0.24384 7.07133 1.2192
          CHANNELS 3 Zrotation Xrotation Yrotation
          JOINT leftEye
          {
            OFFSET 4.14528 8.04674 8.04672
            CHANNELS 3 Zrotation Xrotation Yrotation
            End Site
            {
              OFFSET 1 0 0
            }
          }
          JOINT rightEye
          {
            OFFSET -3.6576 8.04674 8.04672
            CHANNELS 3 Zrotation Xrotation Yrotation
            End Site
            {
              OFFSET 1 0 0
            }
          }
        }
      }
      JOINT rCollar
      {
        OFFSET -2.68224 19.2634 -4.8768
        CHANNELS 3 Zrotation Xrotation Yrotation
        JOINT rShldr
        {
          OFFSET -8.77824 -1.95073 1.46304
          CHANNELS 3 Zrotation Xrotation Yrotation
          JOINT rForeArm
          {
            OFFSET -28.1742 -1.7115 0.48768
            CHANNELS 3 Zrotation Xrotation Yrotation
            JOINT rHand
            {
              OFFSET -22.5879 0.773209 7.07136
              CHANNELS 3 Zrotation Xrotation Yrotation
              JOINT rThumb1
              {
                OFFSET -1.2192 -0.487915 3.41376
                CHANNELS 3 Zrotation Xrotation Yrotation
                JOINT rThumb2
                {
                  OFFSET -3.37035 -0.52449 3.41376
                  CHANNELS 3 Zrotation Xrotation Yrotation
                  End Site
                  {
                    OFFSET -1.78271 -1.18214 1.43049
                  }
                }
              }
              JOINT rIndex1
              {
                OFFSET -7.75947 0.938293 5.60832
                CHANNELS 3 Zrotation Xrotation Yrotation
                JOINT rIndex2
                {
                  OFFSET -2.54057 -0.884171 1.56538
                  CHANNELS 3 Zrotation Xrotation Yrotation
                  End Site
                  {
                    OFFSET -1.62519 -0.234802 1.16502
                  }
                }
              }
              JOINT rMid1
              {
                OFFSET -8.24714 1.18213 3.41376
                CHANNELS 3 Zrotation Xrotation Yrotation
                JOINT rMid2
                {
                  OFFSET -3.10165 -0.590103 1.0647
                  CHANNELS 3 Zrotation Xrotation Yrotation
                  End Site
                  {
                    OFFSET -2.48547 -0.328903 0.83742
                  }
                }
              }
              JOINT rRing1
              {
                OFFSET -8.82822 0.546677 1.51678
                CHANNELS 3 Zrotation Xrotation Yrotation
                JOINT rRing2
                {
                  OFFSET -2.60934 -0.819778 -0.0198488
                  CHANNELS 3 Zrotation Xrotation Yrotation
                  End Site
                  {
                    OFFSET -2.33842 -0.294052 0.168128
                  }
                }
              }
              JOINT rPinky1
              {
                OFFSET -8.27202 -0.0477905 -0.4584
                CHANNELS 3 Zrotation Xrotation Yrotation
                JOINT rPinky2
                {
                  OFFSET -1.82734 -0.647385 -0.700984
                  CHANNELS 3 Zrotation Xrotation Yrotation
                  End Site
                  {
                    OFFSET -1.69225 -0.51767 -0.607171
                  }
                }
              }
            }
          }
        }
      }
      JOINT lCollar
      {
        OFFSET 2.68224 19.2634 -4.8768
        CHANNELS 3 Zrotation Xrotation Yrotation
        JOINT lShldr
        {
          OFFSET 8.77824 -1.95073 1.46304
          CHANNELS 3 Zrotation Xrotation Yrotation
          JOINT lForeArm
          {
            OFFSET 28.1742 -1.7115 0.48768
            CHANNELS 3 Zrotation Xrotation Yrotation
            JOINT lHand
            {
              OFFSET 22.5879 0.773209 7.07136
              CHANNELS 3 Zrotation Xrotation Yrotation
              JOINT lThumb1
              {
                OFFSET 1.2192 -0.487915 3.41376
                CHANNELS 3 Zrotation Xrotation Yrotation
                JOINT lThumb2
                {
                  OFFSET 3.37035 -0.52449 3.41376
                  CHANNELS 3 Zrotation Xrotation Yrotation
                  End Site
                  {
                    OFFSET 1.78271 -1.18214 1.43049
                  }
                }
              }
              JOINT lIndex1
              {
                OFFSET 7.75947 0.938293 5.60832
                CHANNELS 3 Zrotation Xrotation Yrotation
                JOINT lIndex2
                {
                  OFFSET 2.54057 -0.884171 1.56538
                  CHANNELS 3 Zrotation Xrotation Yrotation
                  End Site
                  {
                    OFFSET 1.62519 -0.234802 1.16502
                  }
                }
              }
              JOINT lMid1
              {
                OFFSET 8.24714 1.18213 3.41376
                CHANNELS 3 Zrotation Xrotation Yrotation
                JOINT lMid2
                {
                  OFFSET 3.10165 -0.590103 1.0647
                  CHANNELS 3 Zrotation Xrotation Yrotation
                  End Site
                  {
                    OFFSET 2.48547 -0.328903 0.83742
                  }
                }
              }
              JOINT lRing1
              {
                OFFSET 8.82822 0.546677 1.51678
                CHANNELS 3 Zrotation Xrotation Yrotation
                JOINT lRing2
                {
                  OFFSET 2.60934 -0.819778 -0.0198488
                  CHANNELS 3 Zrotation Xrotation Yrotation
                  End Site
                  {
                    OFFSET 2.33842 -0.294052 0.168128
                  }
                }
              }
              JOINT lPinky1
              {
                OFFSET 8.27202 -0.0477905 -0.4584
                CHANNELS 3 Zrotation Xrotation Yrotation
                JOINT lPinky2
                {
                  OFFSET 1.82734 -0.647385 -0.700984
                  CHANNELS 3 Zrotation Xrotation Yrotation
                  End Site
                  {
                    OFFSET 1.69225 -0.51767 -0.607171
                  }
                }
              }
            }
          }
        }
      }
    }
  }
  JOINT rButtock
  {
    OFFSET -8.77824 4.35084 1.2192
    CHANNELS 3 Zrotation Xrotation Yrotation
    JOINT rThigh
    {
      OFFSET 0 -1.70687 -2.19456
      CHANNELS 3 Zrotation Xrotation Yrotation
      JOINT rShin
      {
        OFFSET 0 -36.8199 0.73152
        CHANNELS 3 Zrotation Xrotation Yrotation
        JOINT rFoot
        {
          OFFSET 0.73152 -45.1104 -5.12064
          CHANNELS 3 Zrotation Xrotation Yrotation
          End Site
          {
            OFFSET -1.1221 -3.69964 12.103
          }
        }
      }
    }
  }
  JOINT lButtock
  {
    OFFSET 8.77824 4.35084 1.2192
    CHANNELS 3 Zrotation Xrotation Yrotation
    JOINT lThigh
    {
      OFFSET 0 -1.70687 -2.19456
      CHANNELS 3 Zrotation Xrotation Yrotation
      JOINT lShin
      {
        OFFSET 0 -36.8199 0.73152
        CHANNELS 3 Zrotation Xrotation Yrotation
        JOINT lFoot
        {
          OFFSET -0.73152 -45.1104 -5.12064
          CHANNELS 3 Zrotation Xrotation Yrotation
          End Site
          {
            OFFSET 1.1221 -3.69964 12.103
          }
        }
      }
    }
  }
}
MOTION
Frames:	7
Frame Time:	0.03333
0.0 0.0 0.0 0.0 0.0 0.0 0.0 0.0 0.0 0.0 0.0 0.0 0.0 0.0 0.0 0.0 0.0 0.0 0.0 0.0 0.0 0.0 0.0 0.0 0.0 0.0 0.0 0.0 0.0 0.0 0.0 0.0 0.0 0.0 0.0 0.0 0.0 0.0 0.0 0.0 0.0 0.0 0.0 0.0 0.0 0.0 0.0 0.0 0.0 0.0 0.0 0.0 0.0 0.0 0.0 0.0 0.0 0.0 0.0 0.0 0.0 0.0 0.0 0.0 0.0 0.0 0.0 0.0 0.0 0.0 0.0 0.0 0.0 0.0 0.0 0.0 0.0 0.0 0.0 0.0 0.0 0.0 0.0 0.0 0.0 0.0 0.0 0.0 0.0 0.0 0.0 0.0 0.0 0.0 0.0 0.0 0.0 0.0 0.0 0.0 0.0 0.0 0.0 0.0 0.0 0.0 0.0 0.0 0.0 0.0 0.0 0.0 0.0 0.0 0.0 0.0 0.0 0.0 0.0 0.0 0.0 0.0 0.0 0.0 0.0 0.0 0.0 0.0 0.0 0.0 0.0 0.0
0.0252 62.59909999999999 -0.1923 0.307791 -41.132943 -1.31767 -0.773648 3.689604 0.017618 -5.520031 -11.63172 147.21414 9.128007 -9.971113 110.159205 37.601697 39.719661 122.550665 -131.366713 5.523612 12.187292 175.292399 3.31029 -70.212883 46.469731 -85.578651 -59.162026 -147.394674 39.678364 155.005632 4.848368 38.2527 173.411033 154.50516 -59.30554 63.57138 -90.009713 -0.208528 44.472692 86.721709 -27.128656 -136.923077 -15.603995 14.624245 -135.400644 -88.490229 59.77839 -127.455921 89.235308 8.579567 -111.445342 -178.494947 -2.446571 129.85623 87.250824 14.420311 -85.601954 92.464465 -73.733562 80.50547 41.26309 1.855158 -65.052056 -137.78986 -29.081815 -123.569448 74.600838 -4.881163 -158.046134 -12.307355 1.014732 -11.445823 174.13143 0.306302 12.857427 -14.32784 -28.002156 29.772666 165.154285 4.870213 -80.623148 88.856141 34.737163 -97.477465 4.198415 -1.348252 -14.408013 164.118358 27.088922 -107.368846 -170.249606 -21.674416 -39.097961 41.829797 -71.655914 -124.632572 55.757541 65.941302 123.098693 -90.175096 78.601627 93.562343 -130.600268 -18.74591 36.244984 13.383428 82.562667 -43.054573 4.347779 -45.842706 6.049294 -1.003533 47.290005 -0.0 6.976576 -2.137777 77.725746 69.783726 -12.673184 -93.163528 54.020556 12.510689 96.818263 -2.357683 55.833329 0.0 -4.505937 2.182849 -125.949953 69.77777 -28.18734 -110.710464
0.8825 60.7784 0.1414 7.180292 -37.601199 -7.395373 -11.231683 15.769028 -42.224107 7.201996 -0.307171 44.601688 -19.041505 26.222629 -94.309962 41.067564 15.972848 52.103912 -10.851982 5.65578 -54.95231 -2.785191 0.53414 -21.708555 19.206641 -69.920345 0.499598 -152.291503 15.481836 -173.451642 -58.129312 21.503892 -32.461635 106.919631 -65.098681 89.561808 -89.745476 36.151839 47.846556 -15.331238 -33.758297 0.467358 18.378218 -27.183216 0.037735 -171.973721 5.834459 94.843026 -166.251953 -5.725554 150.826156 -21.623034 66.839428 11.897428 -52.267645 -78.858516 -80.783941 162.318376 -67.331501 144.157324 14.612906 53.138426 -16.680986 -152.278453 -45.832872 -171.999793 12.57381 34.818537 -10.085602 97.768164 -3.986821 -153.018098 -169.679241 -24.380341 98.818279 14.709323 -14.896788 5.731746 91.741131 52.196655 -50.070646 -40.073147 -43.812604 -51.447914 14.794968 34.501001 17.372506 -94.877508 -12.370825 -39.739643 -63.036562 -81.710487 -31.808409 162.236826 -9.521675 -127.260401 -90.299993 71.241233 81.51884 -155.790938 -63.716271 170.972124 138.81285 -10.073682 97.774601 -161.235567 50.108894 68.827692 -170.681423 74.221644 -0.0 139.047664 8.814645 101.329013 63.807367 15.114652 -156.605822 1.651155 -29.234015 92.462657 1.441084 3.873863 -20.42352 24.747904 6.121259 -2.292927 -41.685975 37.065335 -87.534226 -22.620289 40.536249 151.196559
0.3628 57.459199999999996 -0.0023 5.520828 -40.190953 -8.94877 -9.291957 17.941366 2.514113 0.224998 -7.869083 6.071242 -10.507557 17.477835 -70.623416 31.505152 -1.63101 21.836463 -3.403839 0.676003 -22.459405 -4.216518 0.970968 -25.924992 8.121352 -16.00162 -9.288276 165.473754 -75.536955 124.183605 67.595311 0.006599 -27.862261 -174.838783 53.673895 153.095179 -173.368263 -3.374106 105.365334 -108.634522 -59.945955 -156.745793 -51.154477 38.959619 34.274674 -32.75297 66.036879 66.326994 -4.977719 45.056522 -11.90178 -1.303526 -26.718797 15.023697 -65.649965 -59.630413 -106.526674 -144.913645 -11.672438 144.949313 -16.606093 -11.5262 -31.487528 -61.651018 56.758865 106.563822 157.595567 -3.821765 -160.29751 -111.752275 -41.227544 -151.117407 172.898053 23.215344 -50.101201 162.075766 5.085215 -135.438024 171.78103 -17.37579 -108.246669 34.171895 46.599992 -6.842057 35.675159 45.381147 -34.157698 164.640222 5.100072 -106.446414 -81.755784 -81.414646 -55.445081 -22.717405 14.540552 -17.565986 141.199156 54.366082 167.774088 63.114813 -21.260319 75.271091 122.683429 27.741083 -163.692261 0.855042 32.010284 -67.123257 172.331178 81.508085 -0.0 145.475082 23.177352 35.866925 50.457978 52.009624 54.541886 -1.979214 -9.227563 -95.876111 1.138418 5.92093 -10.90378 25.916589 7.915871 -89.992164 -36.595169 -14.593614 84.11967 74.311286 20.79274 0.638205
-0.8031 53.9191 -0.8342 4.550046 -42.406035 -6.142259 -7.402244 13.283685 1.408128 -2.699159 -6.263604 7.311694 15.606022 21.056633 134.171494 -8.038599 32.384203 -179.00015 14.704911 2.559311 19.643062 -8.13966 -0.044004 0.618453 -7.892707 64.451014 13.08963 -9.811895 8.516644 45.258332 -115.690764 -79.681611 -77.818132 -3.256167 25.037541 3.004537 -3.21139 -0.922917 2.849115 -133.572994 -13.020454 106.821413 0.061764 -33.810218 4.999659 47.355574 77.558345 -48.641432 -158.759303 -1.984901 154.010785 -33.207218 66.498326 26.550611 6.299187 44.540716 -1.504764 5.615968 -0.157431 7.613868 -113.129977 -29.435705 -110.882779 1.404748 -22.547573 -36.637902 142.260746 36.424613 -144.056226 -75.556724 -24.40171 -94.256515 -6.814781 -22.563476 -99.246616 12.930351 -12.957744 10.334466 157.629697 -7.937386 -104.191951 8.487985 15.720601 9.681706 -43.60205 -55.175396 -9.150146 -175.463358 -66.769866 -97.32998 156.987829 21.493641 -121.271157 -13.392452 -9.379899 -20.300191 -75.468995 -82.050438 -33.214376 -85.079157 -72.405691 -91.983002 124.054766 47.495758 -168.071423 -23.6508 39.393545 -34.223035 -7.510061 -4.868326 9.081482 -46.512142 -35.266457 -120.014405 -72.212044 12.93394 -80.478273 -62.198377 16.135129 -177.350427 -0.937971 -9.050861 1.043576 30.123848 15.76824 -180.0 9.584276 -36.025505 141.712144 160.950913 9.237008 -66.754756
-1.542 54.63289999999999 -2.0117 6.875465 -43.64756 -6.271862 -14.349167 11.209766 -0.0 4.375371 -5.130856 8.307916 7.121709 7.24134 26.366694 -17.004555 -8.864565 -66.075048 5.392914 1.291699 26.921147 6.84905 1.331854 21.984 -86.331845 76.047435 88.719287 -100.500695 47.298528 80.616955 11.842988 -25.454887 -65.205879 160.298101 -30.867579 143.278686 6.977314 -13.384954 10.971417 -122.821357 32.278909 121.131832 -146.541921 27.774474 86.926199 -85.888276 20.893729 40.344162 2.157219 18.816553 0.997523 -0.27949 -21.317664 -12.133909 -145.907456 6.638717 -167.969163 -138.244059 -67.646973 -150.664094 -21.585799 -34.103427 -36.600842 -55.620617 65.613012 117.169535 6.956549 25.030542 -10.156748 -76.176493 18.225574 3.452195 -1.922001 -3.017919 -100.920245 8.916874 -22.642178 11.269026 62.635574 42.693668 -37.339104 -36.881285 -53.342529 2.472587 -3.534592 4.716242 -11.260147 175.489774 -19.194832 -121.577859 179.032978 -7.17787 -126.783582 157.371546 20.409158 -100.256013 -27.110881 3.096286 -35.873905 -119.333575 22.236426 122.165301 5.728931 39.954807 -30.860568 14.609495 4.470616 16.742906 51.685535 38.790487 50.323689 -129.621 12.735339 -0.0 66.308867 39.866225 -172.908686 68.69469 -47.345443 166.578843 122.08209 84.182696 58.050889 -67.604957 65.466152 -110.549306 -15.046597 31.019724 -19.192322 173.540334 -16.634754 -72.037046
-1.7472999999999999 55.60509999999999 -2.8053000000000003 10.457633 -46.182043 -7.652751 -18.887027 6.144207 -85.933442 1.138016 7.24517 91.633842 -8.149563 23.904778 -106.37098 33.667866 13.653174 67.834228 -2.217361 -0.309182 15.874041 39.413942 -19.437656 -51.110434 1.924614 -44.235982 -9.019836 -124.318662 -25.337778 176.614874 179.554357 -2.986628 -147.69758 -11.397909 45.18852 3.519639 -98.092701 27.627458 47.728559 -88.54894 -20.113583 86.768209 177.016783 -13.269418 120.247391 167.63477 12.859811 133.625723 -48.304271 62.249594 55.539679 -162.383268 50.319431 161.215553 -64.324812 75.338458 88.145794 -148.354773 0.3555 175.557809 -149.627978 30.286602 -126.388966 -156.376612 14.968993 -86.199595 160.412035 -48.195366 -169.247324 -129.726212 -22.561081 173.276582 -29.626611 -15.674057 -114.323395 16.372419 6.485239 5.362273 -148.514635 -38.140461 -69.544911 -26.253767 -74.622832 -37.227561 -167.701967 -58.894788 -90.406245 0.956288 8.537591 -33.66398 32.420324 32.189515 -26.820621 5.36803 62.406614 -15.852803 -23.228633 1.619999 -33.919667 -148.568668 -0.647935 125.137661 20.045367 -1.518568 16.111769 154.941029 -74.109247 174.30837 -4.699905 3.533771 6.346375 -62.127742 -48.728629 -137.593693 -79.381997 7.800837 -55.938517 -160.460468 23.401057 -152.481034 -11.862157 0.638976 -17.405598 29.04357 16.398517 -89.175662 -32.807426 -15.013134 104.331067 116.58121 11.750776 -18.199939
